<?xml version="1.0" standalone="no"?>
<!DOCTYPE svg PUBLIC "-//W3C//DTD SVG 20010904//EN"
 "http://www.w3.org/TR/2001/REC-SVG-20010904/DTD/svg10.dtd">
<svg version="1.0" xmlns="http://www.w3.org/2000/svg"
 width="400.000000pt" height="400.000000pt" viewBox="0 0 400.000000 400.000000"
 preserveAspectRatio="xMidYMid meet">
<metadata>
Created by potrace 1.11, written by Peter Selinger 2001-2013
</metadata>
<g transform="translate(0.000000,400.000000) scale(0.100000,-0.100000)"
fill="#000000" stroke="none">
<path d="M1645 3790 c-461 -41 -806 -196 -1085 -487 -107 -111 -173 -205 -242
-341 -44 -89 -115 -279 -106 -287 2 -3 38 24 80 59 103 86 229 168 329 215 81
38 196 77 204 69 2 -2 -36 -34 -85 -71 -276 -210 -489 -505 -574 -795 l-15
-53 47 42 c215 192 352 301 494 393 91 59 233 131 283 142 25 6 21 1 -25 -31
-404 -278 -731 -693 -843 -1072 l-16 -52 97 85 c159 141 354 260 453 279 l35
7 22 -74 c80 -277 104 -625 57 -826 -9 -40 -15 -76 -12 -78 8 -8 170 150 230
224 121 148 204 305 251 479 l25 88 0 -61 c1 -33 8 -103 17 -155 15 -85 30
-137 97 -324 18 -52 21 -81 21 -220 -1 -137 -5 -173 -26 -253 -13 -50 -21 -92
-18 -92 10 0 173 178 226 245 64 84 119 179 143 250 20 60 32 170 51 455 13
186 30 275 70 356 31 63 80 121 67 79 -70 -230 -82 -384 -42 -560 8 -33 37
-138 65 -233 80 -267 100 -374 107 -548 7 -196 -8 -281 -76 -416 -53 -108 -54
-107 54 -35 339 227 520 522 502 816 -4 53 -11 168 -17 256 -12 177 -2 438 25
623 21 141 26 149 18 27 -11 -156 -6 -382 11 -470 8 -44 31 -156 51 -250 62
-301 68 -529 19 -695 -8 -29 -14 -54 -12 -56 9 -8 74 113 105 196 69 184 81
425 33 645 -92 422 -55 796 104 1060 50 83 133 180 194 227 29 22 51 43 48 45
-7 8 -129 -48 -210 -96 -174 -103 -321 -249 -433 -430 l-58 -94 -7 66 c-13
136 -67 263 -141 334 -23 23 -94 69 -157 103 -381 205 -505 311 -545 465 -56
220 44 360 308 430 52 14 139 44 194 67 134 56 183 68 288 68 104 0 191 -17
325 -62 117 -39 200 -42 275 -9 l49 22 -43 25 c-69 39 -341 160 -434 193 -96
34 -243 66 -366 81 -125 15 -372 20 -486 10z"/>
<path d="M2990 3387 c-19 -8 -69 -30 -110 -50 -41 -20 -115 -48 -165 -63 -81
-25 -106 -28 -250 -28 -160 -1 -160 -1 -265 36 -183 65 -296 70 -435 17 -79
-29 -168 -116 -185 -180 -28 -102 12 -200 124 -307 89 -84 153 -126 336 -222
80 -42 166 -90 191 -107 105 -73 167 -175 178 -295 l6 -70 62 93 c161 245 377
406 640 476 85 23 119 26 253 27 141 1 160 -1 214 -23 67 -27 139 -88 166
-142 11 -20 24 -67 31 -104 l12 -68 15 29 c56 107 102 286 102 399 0 273 -237
503 -586 569 -123 22 -292 29 -334 13z"/>
</g>
</svg>
